<svg width="900" height="240" viewBox="0 0 900 240" fill="none" xmlns="http://www.w3.org/2000/svg">
  <defs>
    <linearGradient id="bg" x1="36" y1="18" x2="858" y2="224" gradientUnits="userSpaceOnUse">
      <stop stop-color="#05070C"/>
      <stop offset="0.55" stop-color="#0A0D14"/>
      <stop offset="1" stop-color="#11151E"/>
    </linearGradient>
    <linearGradient id="panel" x1="40" y1="26" x2="854" y2="214" gradientUnits="userSpaceOnUse">
      <stop stop-color="#090D15"/>
      <stop offset="1" stop-color="#0F1622"/>
    </linearGradient>
    <linearGradient id="accent" x1="632" y1="66" x2="782" y2="164" gradientUnits="userSpaceOnUse">
      <stop stop-color="#E2E8F0"/>
      <stop offset="0.54" stop-color="#93C5FD"/>
      <stop offset="1" stop-color="#64748B"/>
    </linearGradient>
    <filter id="glow" x="-20%" y="-20%" width="140%" height="140%">
      <feGaussianBlur stdDeviation="10" result="blur"/>
      <feMerge>
        <feMergeNode in="blur"/>
        <feMergeNode in="SourceGraphic"/>
      </feMerge>
    </filter>
  </defs>

  <rect width="900" height="240" rx="26" fill="url(#bg)"/>
  <rect x="20" y="20" width="860" height="200" rx="20" fill="url(#panel)" stroke="#232A36"/>

  <g opacity="0.06" stroke="white">
    <path d="M44 58H856"/>
    <path d="M44 108H856"/>
    <path d="M44 158H856"/>
    <path d="M130 34V206"/>
    <path d="M300 34V206"/>
    <path d="M470 34V206"/>
    <path d="M640 34V206"/>
  </g>

  <circle cx="50" cy="50" r="5" fill="#FB7185"/>
  <circle cx="70" cy="50" r="5" fill="#F59E0B"/>
  <circle cx="90" cy="50" r="5" fill="#34D399"/>

  <text x="128" y="57" fill="#C7D2FE" font-family="Consolas, Monaco, monospace" font-size="18">~/vladislav/portfolio.os</text>
  <text x="48" y="92" fill="#9CA3AF" font-family="Consolas, Monaco, monospace" font-size="15">$ launch profile --mode github</text>

  <text x="48" y="142" fill="#F8FAFC" font-family="Segoe UI, Arial, sans-serif" font-size="44" font-weight="700">Vladislav Bredihin</text>
  <text x="48" y="176" fill="#94A3B8" font-family="Segoe UI, Arial, sans-serif" font-size="21">Fullstack / Web / Mobile / 3D</text>

  <path d="M48 194H320" stroke="#30384A"/>

  <g filter="url(#glow)">
    <circle cx="708" cy="120" r="52" stroke="url(#accent)" stroke-width="7" opacity="0.9"/>
    <circle cx="708" cy="120" r="24" stroke="#E5E7EB" stroke-width="3.5" opacity="0.9"/>
    <circle cx="708" cy="120" r="7" fill="#F8FAFC"/>
    <path d="M666 144L690 129L708 120L736 98L770 78" stroke="url(#accent)" stroke-width="3.5" stroke-linecap="round"/>
    <circle cx="666" cy="144" r="5.5" fill="#94A3B8"/>
    <circle cx="690" cy="129" r="5" fill="#CBD5E1"/>
    <circle cx="736" cy="98" r="5" fill="#93C5FD"/>
    <circle cx="770" cy="78" r="5.5" fill="#E2E8F0"/>
  </g>
</svg>
