<svg width="900" height="240" viewBox="0 0 900 240" fill="none" xmlns="http://www.w3.org/2000/svg">
  <defs>
    <linearGradient id="bg" x1="40" y1="20" x2="850" y2="220" gradientUnits="userSpaceOnUse">
      <stop stop-color="#070B14"/>
      <stop offset="1" stop-color="#0E1726"/>
    </linearGradient>
    <linearGradient id="accent" x1="620" y1="54" x2="786" y2="176" gradientUnits="userSpaceOnUse">
      <stop stop-color="#7ddfff"/>
      <stop offset="1" stop-color="#7dff9e"/>
    </linearGradient>
  </defs>

  <rect width="900" height="240" rx="26" fill="url(#bg)"/>
  <rect x="20" y="20" width="860" height="200" rx="20" fill="#0A1220" stroke="#1F2A3A"/>

  <g opacity="0.08" stroke="white">
    <path d="M44 58H856"/>
    <path d="M44 108H856"/>
    <path d="M44 158H856"/>
    <path d="M130 34V206"/>
    <path d="M300 34V206"/>
    <path d="M470 34V206"/>
    <path d="M640 34V206"/>
  </g>

  <circle cx="50" cy="50" r="5.5" fill="#FB7185"/>
  <circle cx="72" cy="50" r="5.5" fill="#F59E0B"/>
  <circle cx="94" cy="50" r="5.5" fill="#34D399"/>

  <text x="132" y="57" fill="#9ED8FF" font-family="Consolas, Monaco, monospace" font-size="20">~/vladislav/portfolio.os</text>
  <text x="48" y="94" fill="#D1D5DB" font-family="Consolas, Monaco, monospace" font-size="16">$ launch profile --mode github</text>

  <text x="48" y="144" fill="white" font-family="Segoe UI, Arial, sans-serif" font-size="46" font-weight="700">Vladislav Bredihin</text>
  <text x="48" y="178" fill="#B8C2D1" font-family="Segoe UI, Arial, sans-serif" font-size="22">Fullstack / Web / Mobile / 3D</text>

  <g>
    <circle cx="708" cy="120" r="54" stroke="url(#accent)" stroke-width="8"/>
    <circle cx="708" cy="120" r="26" stroke="#E5F2FF" stroke-width="4" opacity="0.92"/>
    <circle cx="708" cy="120" r="8" fill="#F8FAFC"/>
    <path d="M664 146L688 130L708 120L738 98L772 76" stroke="url(#accent)" stroke-width="4" stroke-linecap="round"/>
    <circle cx="664" cy="146" r="6.5" fill="#7DFF9E"/>
    <circle cx="688" cy="130" r="6" fill="#7DDFFF"/>
    <circle cx="738" cy="98" r="6" fill="#C4B5FD"/>
    <circle cx="772" cy="76" r="6.5" fill="#F9A8D4"/>
  </g>
</svg>
